<?xml version="1.0" encoding="UTF-8"?>
<svg version="1.1" viewBox="0 0 2000 2000" width="500" height="500" xmlns="http://www.w3.org/2000/svg">
<path transform="translate(258,613)" d="m0 0h40l14 2 12 6 10 10 3 5 14-14 10-6 7-2 10-1h38l14 2 10 4 11 10 7 11 3 9 1 25v282l-1 1h-53l-1-1v-291l-41 1-1 290-1 1h-52l-1-1-1-290h-41v290l-1 1h-53l-1-1v-300l3-14 7-12 9-9 12-6z" fill="#39393E"/>
<path transform="translate(878,619)" d="m0 0h220l51 1v198l-2 1-149 1-10 11-9 11-4 5 7 11 11 16 16 23 17 25 11 16 1 4h-58l-5-5-8-13-16-28-10-17-4-2-2 5-7 11-1 17v30l-4 2h-44l-2-1v-321zm49 39-1 1v187h3l4-5 10-16 26-39 4-4h26l112-1v-123z" fill="#3A3A3F"/>
<path transform="translate(546,613)" d="m0 0h58l17 2 12 6 7 6 7 10 4 10 1 5v265l-2 9-6 12-7 8-9 6-7 3-12 2h-68l-12-3-10-6-8-8-6-10-3-9-1-9v-258l3-12 5-9 9-10 9-6 9-3zm10 52-1 1v238l1 1h42v-199l-1-41z" fill="#39393E"/>
<path transform="translate(1536,1027)" d="m0 0h48l1 1v198h36l-1-46v-152l1-1h46l2 2v196l35 1v-198l1-1h39l9 1v203l-2 13-6 12-6 7-10 6-5 2-6 1h-45l-11-4-10-8-5-6v-2h-3l-7 9-8 6-9 4-6 1h-44l-12-4-10-8-7-10-3-8-2-12z" fill="#3A3A3F"/>
<path transform="translate(738,613)" d="m0 0h57l17 2 12 6 10 10 7 14 2 8v36l-14 8-40 20-1-21v-31l-41 1v239l41-1v-39l4-4 46-23 5-2v80l-4 15-7 11-9 8-11 5-12 2h-68l-12-3-10-6-9-9-7-14-2-12v-260l2-9 6-11 9-10 11-7 7-2z" fill="#39393E"/>
<path transform="translate(855,1027)" d="m0 0h58l13 3 10 6 8 9 5 11 2 10v62l-8 5-66 33-9 5-1 55h35v-43l3-3 44-22 2 1v63l-1 17-3 10-8 11-8 7-10 4-6 1h-65l-16-8-9-9-5-11-2-13v-163l2-13 5-10 8-9 10-6zm12 47v52l5-1 28-14 2-2v-35z" fill="#3B3B40"/>
<path transform="translate(1404,1027)" d="m0 0h58l11 2 10 5 5 5 6 7 5 11 1 7v64l-1 2-80 40h-2l-1 56h36v-44l5-3 42-21 1 1v72l-1 12-6 12-8 9-14 7-7 1h-64l-12-5-9-7-7-10-4-13v-177l5-12 4-6 7-7 14-7zm12 47v52l5-1 30-15 1-1v-35z" fill="#39393E"/>
<path transform="translate(521,1027)" d="m0 0h47l1 1v17l4-2 5-6 9-6 12-4h17l12 3 11 7 7 8 5 10 2 12v204l-1 1h-48l-1-198h-34v197l-1 1-37 1-10-1-1-1v-243z" fill="#3B3B40"/>
<path transform="translate(1123,1027)" d="m0 0h48l2 8 7 48 12 84 2 20h2l10-69 8-56 4-30 2-5h47l1 5-10 57-10 54-13 72-9 50-3 7h-55l-3-8-11-60-13-72-10-54-8-46z" fill="#3A3A3F"/>
<path transform="translate(753,985)" d="m0 0 2 1-1 54 23-11 13-7 4-1v52l-3 3-23 12-12 7-1 1-1 130h46v46h-62l-12-5-9-7-6-8-4-9-1-6v-118l-26 13-4-1v-50l4-4 23-12 2-2 1-53 14-8 28-14z" fill="#39393E"/>
<path transform="translate(986,1027)" d="m0 0h48l1 1v9l-1 9 5-3 5-5 6-5 10-5 5-1h17l9 2 10 5 8 7 6 10 3 10 1 7v33l-9 6-32 16-5 3h-3l-1-52h-34l-1 197-1 1h-47z" fill="#39393E"/>
<path transform="translate(482,1030)" d="m0 0 3 1v240l-1 1h-47l-1-1v-216l2-3 23-11z" fill="#3D3D42"/>
<path transform="translate(1330,1030)" d="m0 0 3 1v240l-1 1h-47l-1-1v-216l4-4 26-13z" fill="#39393E"/>
<path transform="translate(483,963)" d="m0 0 2 2v40l-2 4-44 22-3-1v-42l19-10 22-11z" fill="#38383D"/>
<path transform="translate(1288,966)" d="m0 0 3 2 11 29 10 24 1 6-25 10-6 1-5-4-10-21-9-25v-7l7-5 17-7zm-11 14-7 3 1 7 11 28 4 9 6-1 6-3-2-9-12-31-2-3z" fill="#30303F"/>
<path transform="translate(1368,1096)" d="m0 0h2l1 11 1 27v37l1 50v11l2 6 2 11h2l2 6h2l1 3 11 6 12 3 14 1 2-1h16l10-1 18-1 2 1v-2l4-1 2 1v-2l7-3 2-3h3l1-4h2v-3h2l1-7 3-7h1l1 11-7 12-9 8-11 5-7 1h-64l-12-5-9-7-7-10-4-13z" fill="#2E2F3E"/>
<path transform="translate(521,1027)" d="m0 0h47l1 4-2 3-10-2h-16l-17 1v5l-1 1v214l1 12 6 1h24l14-1 1 6-1 1-37 1-10-1-1-1v-243z" fill="#373842"/>
<path transform="translate(841,836)" d="m0 0h2v80l-4 15-7 11-9 8-11 5-12 2h-68l-12-3-1-3 9 1h54l21-1 16-6 8-6 7-11 3-6 2-13 1-16v-47l-4 1-3 2-8 1-3 2-8 2-15 7 1-4 38-19z" fill="#313240"/>
<path transform="translate(1705,1027)" d="m0 0h39l6 2 1 3-1 46-2-3-1-42-7 1-31-1v164l-2 21-2 3z" fill="#2F303F"/>
<path transform="translate(483,963)" d="m0 0 2 2v40l-2 4-44 22-3-1v-42l19-10 22-11zm-8 13-9 4-6 1-5 1v2l-12 4-1 3-3 2-1 13 1 16 5-1 8-4 5-1v-2l9-3 10-6 3-6 1-11v-4l2-2-3-6z" fill="#343542"/>
<path transform="translate(1309,957)" d="m0 0h3l12 30 11 28-1 5-8 2-3-4-16-39-6-15 1-4z" fill="#30313F"/>
<path transform="translate(947,1227)" d="m0 0 3 1v11l-3 10-8 11-8 7-10 4-6 1h-65l-16-8-9-9-3-6 1-4 3 6 3 1 3 5 9 7 11 2 20 1h23l25-2 2-1 2 1v-2l4-1 4-2 4-6 6-6 1-7h2l1-11z" fill="#313240"/>
<path transform="translate(650,916)" d="m0 0h1v7l-5 12-9 11-9 6-7 3-12 2h-68l-7-2 1-2 5-1h23l34-1 15-1 15-4 10-9 2-3h2l2-5 3-7 2-4z" fill="#323341"/>
<path transform="translate(1404,1027)" d="m0 0h58l5 1 4 3h-37l-20 2-19 4-6 3-9 7-5 10-3 16-2 10-2 1v-24l5-12 4-6 7-7 14-7z" fill="#30313E"/>
<path transform="translate(1330,1030)" d="m0 0 3 1-1 9-2 6h-2l-1-2-7 1-26 10-6 2-1 9v163l-2 1v-177l19-10 19-9z" fill="#323241"/>
<path transform="translate(1220,1027)" d="m0 0h47l1 5-4 23-2 3-3-6 1-15h-2l-3-3h-5l-5-1-20 1-3 4-3 8-2 22-2 9-1 4h-2l1-13 5-36z" fill="#333441"/>
<path transform="translate(1013,911)" d="m0 0h2v2l4-1 14 20 5 9v1h-58l-5-5-3-4v-4h2v2l3 1v2l5 2 4 1h9l4-2h9l8-2 8-1-1-5-5-7v-3l-3-1z" fill="#30313F"/>
<path transform="translate(1621,1027)" d="m0 0h46l-1 68-2-4v-49l-1-7-9-2-10-1h-20l-1 40-1 9-1 76h-1v-129z" fill="#676872"/>
<path transform="translate(1540,1245)" d="m0 0 1 2 3 1 5 6 4 3v2l12 6 14 2h16l22-2 8-3 5-3h4v-2l5-1-1 4-9 7-9 4-6 1h-44l-12-4-10-8-7-10z" fill="#30313F"/>
<path transform="translate(521,1027)" d="m0 0h47l1 4-2 3-10-2h-16l-17 1v5l-1 1v213l-2 1-1-225z" fill="#2D2E3C"/>
<path transform="translate(796,1253)" d="m0 0 4 2v17h-62l-12-5-6-4 1-3 6 2 8 3 8 2h14l23-1h9l5-2 1-2z" fill="#2E2F3D"/>
<path transform="translate(1123,1027)" d="m0 0h48l2 8 5 34v4l-3-1-2-6-2-15-4-14-9-4h-19l-12 1h-3z" fill="#31323F"/>
<path transform="translate(1750,1232)" d="m0 0 2 1v8l-5 12-7 9-9 6-7 3-6 1h-45l-7-3 1-3 15 2h23l22-5 6-3 3-1v-2l5-3 6-12v-4h2z" fill="#313240"/>
<path transform="translate(409,912)" d="m0 0h2l1 17 2 23h21l15 1v-2h4l2-5 2-2 1 3h3v9l-1 1h-53v-44z" fill="#2F303E"/>
<path transform="translate(1117,1087)" d="m0 0 2 2v12l-9 6-32 16-5 3h-2v-18l1 3 5 2 9-1 8-4 11-6 5-6 5-5z" fill="#333442"/>
<path transform="translate(877,918)" d="m0 0h1l4 14 2 5h27l3-2h3v-2l4-2 4-11h1l1 20-4 2h-44l-2-1z" fill="#353643"/>
<path transform="translate(1016,713)" d="m0 0h19l1 1v17l-2 1h-17l-1-1z" fill="#414146"/>
<path transform="translate(964,713)" d="m0 0h17l2 4-1 15h-18l-1-1v-16z" fill="#434348"/>
<path transform="translate(986,1248)" d="m0 0 2 3v14l7 1h22l9-2 4-4 4-2v13l-1 1h-47z" fill="#2C2D3C"/>
<path transform="translate(1070,713)" d="m0 0h18v18l-1 1h-13l-5-1v-17z" fill="#45454A"/>
<path transform="translate(599,1027)" d="m0 0h17l12 3 11 7 7 8 5 10 1 4v13l-4-2-3-15-1-4-5-8-6-5-8-5-7-1v-2l-2 1-16 1-11 2v-3l6-3z" fill="#343542"/>
<path transform="translate(840,672)" d="m0 0 3 1v16l-14 8-40 20v-8l10-4 9-3 9-4 12-6 5-3 4-4z" fill="#2F303E"/>
<path transform="translate(1223,1264)" d="m0 0h2l-1 7-1 1h-55l-1-5 6-1h48z" fill="#2C2D3C"/>
<path transform="translate(986,1027)" d="m0 0h48v7h-5l-6-2-19 1h-8l-5 2-5 4z" fill="#2E2F3C"/>
<path transform="translate(362,946)" d="m0 0h1l1 11h-52l-1-4 4-2 20 1h22l3-4h2z" fill="#2C2D3C"/>
<path transform="translate(1289,1265)" d="m0 0 34 1 4 1 4-2 2 6-1 1h-47l-1-4h4z" fill="#303140"/>
<path transform="translate(1498,1158)" d="m0 0h1v13l-2 3h2v12l-2 1-1-16h-9l-13 6-8 3h-7v-2l36-18z" fill="#2E2F3D"/>
<path transform="translate(482,1030)" d="m0 0 3 1-1 24h-3l-2-9-5-2 3-3-3-1v2l-11 2h4l2 2-8 1-2-1-1 2h-8l3-3 26-13z" fill="#2E2F3D"/>
<path transform="translate(841,836)" d="m0 0h2v20l-3-1v-9l-4 1-3 2-8 1-3 2-8 2-15 7 1-4 38-19z" fill="#343543"/>
<path transform="translate(855,1027)" d="m0 0h58l10 2 1 2h-9l-12-2v2h-27l-18-1-6 2h-7l1-3z" fill="#32333F"/>
<path transform="translate(973,781)" d="m0 0 59 1v1l-14 1-18 1-6 1v-2l-10 2-9 2-10 9-3 3h-2l2-5 8-12z" fill="#363643"/>
<path transform="translate(638,631)" d="m0 0h5l5 9 3 7v47h-1l-3-25-1-16-3-11-3-7z" fill="#2F303E"/>
<path transform="translate(1540,1151)" d="m0 0h1v66l-2 23-2-2v-41-3-16l1-4 1-19z" fill="#2C2D3C"/>
<path transform="translate(1537,1028)" d="m0 0h43l4 1v2l-2 1-2 3-3-2h-8l-8-1-20 1v3h-2l-1 4h-1z" fill="#2C2D3C"/>
<path transform="translate(753,985)" d="m0 0 2 1-1 10h-9l-5 3-13 3-5 3-3-1 3-3 26-13z" fill="#30313F"/>
<path transform="translate(767,1227)" d="m0 0h33v17l-1-3-2-1-1-4-2 3-1-3-8-4-12-2-6-2z" fill="#2C2D3C"/>
<path transform="translate(927,1032)" d="m0 0 5 1 9 8 6 10 3 8v12h-2l-5-13v-5l-2-1v-4h-2l-2-4-3-3-2-5-5-2z" fill="#313240"/>
<path transform="translate(598,736)" d="m0 0h1l1 23 1 31v25l-1 2v16l-2 4z" fill="#2C2D3C"/>
<path transform="translate(437,1265)" d="m0 0 7 1 2 1h17l16-2-2 4h-7l-5 2-1 1h-27z" fill="#2C2D3C"/>
<path transform="translate(827,626)" d="m0 0 4 2 6 8 5 12 1 5v20l-2 2-2-6v-12l-2-10-2-8-7-9z" fill="#343543"/>
<path transform="translate(949,1158)" d="m0 0 2 1-1 15-3-6h-7l-6 1v2l-9 4-8 2 2-4z" fill="#31313F"/>
<path transform="translate(651,1264)" d="m0 0h1l1 7-1 1h-27l-2-1v-2l2-1-1-2h20l5-1z" fill="#2D2E3C"/>
<path transform="translate(790,1022)" d="m0 0h3v16h-2v-2h-2l-3-3-5-1-13 4h-2v2h-3v-2l24-12z" fill="#2E2F3D"/>
<path transform="translate(1065,1027)" d="m0 0h17l9 2 4 3-1 1h-9l-18-2-8 1v-3z" fill="#353643"/>
<path transform="translate(792,1057)" d="m0 0h1v18l-23 12h-3l2-4 7-3 9-6 6-12z" fill="#30313F"/>
<path transform="translate(1103,1037)" d="m0 0 4 2 6 8 4 10 1 10-4-2-4-12-4-6-3-7z" fill="#333442"/>
<path transform="translate(1297,936)" d="m0 0h6l3 4v5l-5 3h-6l-3-4 1-5z" fill="#373744"/>
<path transform="translate(1538,1162)" d="m0 0h1v15l-1 5v12 3 23l-1 10h-1v-67z" fill="#414146"/>
<path transform="translate(437,619)" d="m0 0 4 1 10 9 7 11-3 3-4-5-6-9-5-5z" fill="#3A3B48"/>
<path transform="translate(998,884)" d="m0 0h2l13 19 5 7-1 4-2-1v-2l-3-1-1-5-5-5-2-3v-3l-3-1v-3l-3-1-1-3z" fill="#383945"/>
<path transform="translate(1498,1122)" d="m0 0h1v8l-22 11h-2l2-4 9-4 1-4 6-3h2l1-3z" fill="#363744"/>
<path transform="translate(677,1117)" d="m0 0h2l4 7 5 2v2l-8 4-4-1v-11z" fill="#434451"/>
<path transform="translate(956,902)" d="m0 0 1 2 5 1 5 9 3 9-1 4-10-17-3-5z" fill="#323240"/>
<path transform="translate(1217,1049)" d="m0 0 2 1-2 18-2 9-1 4h-2l1-13 3-17z" fill="#323340"/>
<path transform="translate(993,782)" d="m0 0h39v1l-14 1-18 1-6 1v-2l-2-1z" fill="#2D2E3C"/>
<path transform="translate(481,1266)" d="m0 0 4 2-1 4h-20l2-3 9-1 5-1z" fill="#323340"/>
<path transform="translate(1177,1073)" d="m0 0 2 2 2 16v7l-3-3-2-8v-13z" fill="#3C3D49"/>
<path transform="translate(1256,1079)" d="m0 0h1v14l-2 9-3 9h-1v-7l3-17 1-7z" fill="#333441"/>
<path transform="translate(718 1e3)" d="m0 0 2 1-4 4-1 3-7 3-2 1v-5z" fill="#3F404D"/>
<path transform="translate(1284,1249)" d="m0 0h3v14l-1 5h-2z" fill="#63636D"/>
<path transform="translate(364,615)" d="m0 0 3 1-3 3-4 1v2h-3l-1 3-5-2 5-4z" fill="#3E3F4B"/>
<path transform="translate(948,1125)" d="m0 0h3l-1 4-7 4h-3l1-4 4-3z" fill="#3A3B48"/>
<path transform="translate(1135,620)" d="m0 0h7l2 3v2l3-1v3l-3 3-2-5-9-2z" fill="#2C2D3C"/>
<path transform="translate(713,620)" d="m0 0 4 1-2 3-3 1-5 5h-2l1-4z" fill="#2F2F3C"/>
<path transform="translate(1248,1123)" d="m0 0h1v14l-3 8-1-4z" fill="#2D2D3C"/>
<path transform="translate(723,615)" d="m0 0h5l4 3-12 2-2-1v-2z" fill="#3D3E4B"/>
<path transform="translate(1182,1108)" d="m0 0 2 2 1 14-3-2-1-10z" fill="#454651"/>
<path transform="translate(1491,1044)" d="m0 0 4 4 2 10-3-1-3-8z" fill="#2E2F3C"/>
<path transform="translate(1488,1131)" d="m0 0m-1 1m-1 1 1 3-10 5h-2l2-4z" fill="#444552"/>
<path transform="translate(942,1127)" d="m0 0m-1 1m-1 1m-1 1 2 4-8 4h-2v-2h3l1-5z" fill="#31313C"/>
<path transform="translate(1254,1102)" d="m0 0 1 3-3 16-2-3v-7h2l1-8z" fill="#3F3F48"/>
<path transform="translate(1654,1259)" d="m0 0 4 2 8 6v2l-5-2-5-4z" fill="#3A3B48"/>
<path transform="translate(1032,1258)" d="m0 0h2v6l-6 1-1-2 3-3z" fill="#30313C"/>
<path transform="translate(224,953)" d="m0 0 12 2v1h-20v-1z" fill="#2C2D3C"/>
<path transform="translate(1142,620)" d="m0 0h7l-1 5-5 1-2-5z" fill="#37373D"/>
<path transform="translate(1260,1054)" d="m0 0 3 4-1 8-3 1z" fill="#3F3F44"/>
<path transform="translate(1217,1049)" d="m0 0 2 1-2 12-3 3 2-14z" fill="#2F303C"/>
<path transform="translate(747,613)" d="m0 0h8l1 3h-6l-3 1-3-2z" fill="#30313C"/>
<path transform="translate(470,1268)" d="m0 0h5l-2 4h-9l2-3z" fill="#39393E"/>
<path transform="translate(917,1174)" d="m0 0 2 1-5 5-2 1-3-3z" fill="#545560"/>
<path transform="translate(774,1081)" d="m0 0 2 1v2l-6 3h-3l2-4z" fill="#2F303C"/>
</svg>
