<svg id="visual" viewBox="0 0 960 100" width="960" height="100" xmlns="http://www.w3.org/2000/svg" xmlns:xlink="http://www.w3.org/1999/xlink" version="1.1"><rect x="0" y="0" width="960" height="100" fill="#fff"></rect><path d="M0 23L20 22.3C40 21.7 80 20.3 120 28.2C160 36 200 53 240 54.5C280 56 320 42 360 33.3C400 24.7 440 21.3 480 27C520 32.7 560 47.3 600 56C640 64.7 680 67.3 720 63.7C760 60 800 50 840 51.3C880 52.7 920 65.3 940 71.7L960 78L960 101L940 101C920 101 880 101 840 101C800 101 760 101 720 101C680 101 640 101 600 101C560 101 520 101 480 101C440 101 400 101 360 101C320 101 280 101 240 101C200 101 160 101 120 101C80 101 40 101 20 101L0 101Z" fill="#dceac5" stroke-linecap="round" stroke-linejoin="miter"></path></svg>