<svg id="visual" viewBox="0 0 960 300" width="960" height="300" xmlns="http://www.w3.org/2000/svg" xmlns:xlink="http://www.w3.org/1999/xlink" version="1.1"><rect x="0" y="0" width="960" height="300" fill="#dceac5"></rect><path d="M0 65L22.8 72C45.7 79 91.3 93 137 99C182.7 105 228.3 103 274 109.5C319.7 116 365.3 131 411.2 143.3C457 155.7 503 165.3 548.8 169.7C594.7 174 640.3 173 686 163.2C731.7 153.3 777.3 134.7 823 125.5C868.7 116.3 914.3 116.7 937.2 116.8L960 117L960 301L937.2 301C914.3 301 868.7 301 823 301C777.3 301 731.7 301 686 301C640.3 301 594.7 301 548.8 301C503 301 457 301 411.2 301C365.3 301 319.7 301 274 301C228.3 301 182.7 301 137 301C91.3 301 45.7 301 22.8 301L0 301Z" fill="#d3e3ba"></path><path d="M0 210L22.8 203.2C45.7 196.3 91.3 182.7 137 172.7C182.7 162.7 228.3 156.3 274 162.5C319.7 168.7 365.3 187.3 411.2 199.2C457 211 503 216 548.8 209.8C594.7 203.7 640.3 186.3 686 190.7C731.7 195 777.3 221 823 221C868.7 221 914.3 195 937.2 182L960 169L960 301L937.2 301C914.3 301 868.7 301 823 301C777.3 301 731.7 301 686 301C640.3 301 594.7 301 548.8 301C503 301 457 301 411.2 301C365.3 301 319.7 301 274 301C228.3 301 182.7 301 137 301C91.3 301 45.7 301 22.8 301L0 301Z" fill="#ffffff"></path></svg>