<svg id="visual" viewBox="0 0 960 100" width="960" height="100" xmlns="http://www.w3.org/2000/svg" xmlns:xlink="http://www.w3.org/1999/xlink" version="1.1"><rect x="0" y="0" width="960" height="100" fill="#fff"></rect><path d="M0 75L20 75.7C40 76.3 80 77.7 120 69.8C160 62 200 45 240 43.5C280 42 320 56 360 64.7C400 73.3 440 76.7 480 71C520 65.3 560 50.7 600 42C640 33.3 680 30.7 720 34.3C760 38 800 48 840 46.7C880 45.3 920 32.7 940 26.3L960 20L960 0L940 0C920 0 880 0 840 0C800 0 760 0 720 0C680 0 640 0 600 0C560 0 520 0 480 0C440 0 400 0 360 0C320 0 280 0 240 0C200 0 160 0 120 0C80 0 40 0 20 0L0 0Z" fill="#dceac5" stroke-linecap="round" stroke-linejoin="miter"></path></svg>