<svg id="visual" viewBox="0 0 960 300" width="960" height="300" xmlns="http://www.w3.org/2000/svg" xmlns:xlink="http://www.w3.org/1999/xlink" version="1.1"><rect x="0" y="0" width="960" height="300" fill="#FFFFFF"></rect><path d="M0 141L22.8 147.2C45.7 153.3 91.3 165.7 137 162.8C182.7 160 228.3 142 274 141.8C319.7 141.7 365.3 159.3 411.2 163C457 166.7 503 156.3 548.8 147.8C594.7 139.3 640.3 132.7 686 138C731.7 143.3 777.3 160.7 823 164.8C868.7 169 914.3 160 937.2 155.5L960 151L960 301L937.2 301C914.3 301 868.7 301 823 301C777.3 301 731.7 301 686 301C640.3 301 594.7 301 548.8 301C503 301 457 301 411.2 301C365.3 301 319.7 301 274 301C228.3 301 182.7 301 137 301C91.3 301 45.7 301 22.8 301L0 301Z" fill="#6da165"></path><path d="M0 182L22.8 179.7C45.7 177.3 91.3 172.7 137 180.7C182.7 188.7 228.3 209.3 274 209.3C319.7 209.3 365.3 188.7 411.2 183.8C457 179 503 190 548.8 195.2C594.7 200.3 640.3 199.7 686 202.8C731.7 206 777.3 213 823 216.3C868.7 219.7 914.3 219.3 937.2 219.2L960 219L960 301L937.2 301C914.3 301 868.7 301 823 301C777.3 301 731.7 301 686 301C640.3 301 594.7 301 548.8 301C503 301 457 301 411.2 301C365.3 301 319.7 301 274 301C228.3 301 182.7 301 137 301C91.3 301 45.7 301 22.8 301L0 301Z" fill="#a6c592"></path><path d="M0 267L22.8 266.5C45.7 266 91.3 265 137 260C182.7 255 228.3 246 274 238C319.7 230 365.3 223 411.2 223.5C457 224 503 232 548.8 231.7C594.7 231.3 640.3 222.7 686 226.5C731.7 230.3 777.3 246.7 823 246.3C868.7 246 914.3 229 937.2 220.5L960 212L960 301L937.2 301C914.3 301 868.7 301 823 301C777.3 301 731.7 301 686 301C640.3 301 594.7 301 548.8 301C503 301 457 301 411.2 301C365.3 301 319.7 301 274 301C228.3 301 182.7 301 137 301C91.3 301 45.7 301 22.8 301L0 301Z" fill="#dceac5"></path></svg>